<svg width="14" height="15" viewBox="0 0 14 15" fill="none" xmlns="http://www.w3.org/2000/svg">
<path d="M12.25 12.168V14H12.6875C12.806 14 12.9062 14.041 12.9883 14.123C13.0794 14.2142 13.125 14.319 13.125 14.4375C13.125 14.556 13.0794 14.6562 12.9883 14.7383C12.9062 14.8294 12.806 14.875 12.6875 14.875H2.625C2.14193 14.875 1.72721 14.7018 1.38086 14.3555C1.04362 14.0182 0.875 13.6081 0.875 13.125V3.0625C0.875 2.46094 1.08919 1.94596 1.51758 1.51758C1.94596 1.08919 2.46094 0.875 3.0625 0.875H11.8125C12.1771 0.875 12.487 1.0026 12.7422 1.25781C12.9974 1.51302 13.125 1.82292 13.125 2.1875V10.9375C13.125 11.2201 13.043 11.4753 12.8789 11.7031C12.7148 11.9219 12.5098 12.0768 12.2637 12.168H12.25ZM1.75 11.6211C1.8776 11.5482 2.01432 11.4889 2.16016 11.4434C2.30599 11.3978 2.46094 11.375 2.625 11.375H3.5V1.75H3.0625C2.69792 1.75 2.38802 1.8776 2.13281 2.13281C1.8776 2.38802 1.75 2.69792 1.75 3.0625V11.6211ZM11.375 12.25H2.625C2.37891 12.25 2.16927 12.3366 1.99609 12.5098C1.83203 12.6738 1.75 12.8789 1.75 13.125C1.75 13.3711 1.83203 13.5807 1.99609 13.7539C2.16927 13.918 2.37891 14 2.625 14H11.375V12.25ZM12.25 10.9375V2.1875C12.25 2.06901 12.2044 1.96875 12.1133 1.88672C12.0312 1.79557 11.931 1.75 11.8125 1.75H4.375V11.375H11.8125C11.931 11.375 12.0312 11.334 12.1133 11.252C12.2044 11.1608 12.25 11.056 12.25 10.9375ZM10.9375 4.8125C10.9375 4.93099 10.8919 5.03581 10.8008 5.12695C10.7188 5.20898 10.6185 5.25 10.5 5.25H6.125C6.00651 5.25 5.90169 5.20898 5.81055 5.12695C5.72852 5.03581 5.6875 4.93099 5.6875 4.8125C5.6875 4.69401 5.72852 4.59375 5.81055 4.51172C5.90169 4.42057 6.00651 4.375 6.125 4.375H10.5C10.6185 4.375 10.7188 4.42057 10.8008 4.51172C10.8919 4.59375 10.9375 4.69401 10.9375 4.8125ZM10.9375 7.4375C10.9375 7.55599 10.8919 7.66081 10.8008 7.75195C10.7188 7.83398 10.6185 7.875 10.5 7.875H6.125C6.00651 7.875 5.90169 7.83398 5.81055 7.75195C5.72852 7.66081 5.6875 7.55599 5.6875 7.4375C5.6875 7.31901 5.72852 7.21875 5.81055 7.13672C5.90169 7.04557 6.00651 7 6.125 7H10.5C10.6185 7 10.7188 7.04557 10.8008 7.13672C10.8919 7.21875 10.9375 7.31901 10.9375 7.4375Z" fill="#2C95FF"/>
</svg>
