<svg width="66" height="46" viewBox="0 0 66 46" fill="none" xmlns="http://www.w3.org/2000/svg">
<g filter="url(#filter0_d_341_9788)">
<g clip-path="url(#clip0_341_9788)">
<path d="M55.1745 2.30373L73.4601 70.5466L23.635 83.8972L5.23719 15.2358C5.10618 14.7469 5.39627 14.2444 5.88521 14.1134L53.5214 1.34931C54.2415 1.15637 54.9816 1.58368 55.1745 2.30373Z" fill="white"/>
<path d="M7.77499 18.2657C7.34617 16.6653 8.29591 15.0203 9.89631 14.5915L30.1808 9.15626L48.0393 75.8051L27.7548 81.2403C26.1544 81.6692 24.5094 80.7194 24.0806 79.119L7.77499 18.2657Z" fill="#52D1BD"/>
<path d="M31.4192 20.383C32.3142 22.949 32.144 25.6286 31.1407 27.9386C30.0263 30.5066 27.8839 32.6197 25.0315 33.6145C22.2297 34.5918 19.2932 34.2984 16.8488 33.039C14.566 31.8624 12.7127 29.8436 11.8001 27.2268C9.90993 21.8087 12.7692 15.8839 18.1874 13.9938C23.6055 12.1036 29.5292 14.9645 31.4193 20.3826L31.4192 20.383Z" fill="white"/>
<path d="M31.1403 27.9388C30.0259 30.5068 27.8835 32.6198 25.0311 33.6146C22.2293 34.5919 19.2928 34.2986 16.8484 33.0392C16.8971 28.7875 22.772 26.9238 22.772 26.9238C22.772 26.9238 28.4277 24.769 31.1403 27.9388Z" fill="#FD9C00"/>
<path d="M23.675 23.5388C23.8394 23.9669 24.1699 24.8089 24.8362 26.483L20.5406 27.9816L20.389 26.8526L20.3688 26.7007C20.3551 26.5953 20.2571 26.5222 20.1513 26.536C20.1381 26.5378 20.1256 26.541 20.1147 26.5448C19.7216 26.6766 19.3448 26.6909 18.9873 26.5872C17.1382 26.0518 16.1271 22.5807 15.7931 21.1917C17.6911 21.052 20.4967 19.9288 20.4967 19.9288L21.2037 21.1631L21.4836 21.0831C21.4969 20.1171 22.4611 19.3986 22.9591 19.8967C23.4572 20.3947 23.5426 21.2746 22.7095 22.2954C22.0751 23.073 23.1338 23.4175 23.6753 23.5387L23.675 23.5388Z" fill="#FDC8AA"/>
<path d="M23.8438 28.554L23.968 28.1141L22.7922 27.1959L22.4426 28.6461L22.8138 28.9133L24.4039 34.7737L25.5495 35.0997L26.2434 34.1319L23.8438 28.554Z" fill="#1F155E"/>
<path d="M20.554 20.1324C20.554 20.1324 14.7653 22.4525 14.5219 20.6461C14.2786 18.8397 18.9587 15.2515 21.685 16.1055C24.4115 16.9597 24.3607 20.6954 23.9002 21.7158C23.4394 22.7363 24.472 23.6008 23.8303 23.6099C23.8303 23.6099 21.863 23.3453 22.646 22.3788C23.4291 21.4124 23.348 20.5786 22.8769 20.1061C22.4059 19.6337 21.4985 20.3129 21.487 21.2277L21.2233 21.3036L20.5541 20.132L20.554 20.1324Z" fill="#0E2552"/>
<path d="M23.9443 28.3174C23.9221 28.2767 22.4936 27.139 22.5199 27.1219C22.5461 27.1048 24.8753 25.6957 24.8753 25.6957L25.6178 26.2991L23.9443 28.3174Z" fill="white"/>
<path d="M22.5492 28.8041C22.5413 28.7587 22.9523 26.979 22.921 26.9819C22.8898 26.9848 20.1894 27.3305 20.1894 27.3305L19.9833 28.2648L22.549 28.8045L22.5492 28.8041Z" fill="white"/>
<path d="M51.634 8.06671L35.6732 12.3434C34.8834 12.555 34.4147 13.3668 34.6263 14.1566C34.8379 14.9463 35.6497 15.415 36.4395 15.2034L52.4003 10.9267C53.1901 10.7151 53.6588 9.90331 53.4471 9.11354C53.2355 8.32377 52.4238 7.85509 51.634 8.06671Z" fill="#33DA82"/>
<path d="M46.6899 15.9563L36.8602 18.5902C36.3738 18.7205 36.1533 19.4749 36.3677 20.2751C36.5821 21.0753 37.1502 21.6183 37.6366 21.488L47.4664 18.8541C47.9528 18.7238 48.1732 17.9694 47.9588 17.1692C47.7444 16.369 47.1763 15.826 46.6899 15.9563Z" fill="#DAF3EF"/>
<path d="M54.9675 25.8085L40.2229 29.7593C39.4933 29.9548 39.0757 30.762 39.2901 31.5622C39.5045 32.3624 40.2698 32.8526 40.9993 32.6571L55.7439 28.7063C56.4735 28.5108 56.8912 27.7036 56.6767 26.9034C56.4623 26.1032 55.6971 25.613 54.9675 25.8085Z" fill="#DAF3EF"/>
<path d="M56.5207 31.6039L41.7761 35.5547C41.0465 35.7502 40.6289 36.5574 40.8433 37.3576C41.0577 38.1578 41.823 38.648 42.5526 38.4525L57.2972 34.5017C58.0268 34.3062 58.4444 33.499 58.23 32.6988C58.0156 31.8986 57.2503 31.4084 56.5207 31.6039Z" fill="#DAF3EF"/>
<path d="M51.3794 39.1932L42.7784 41.4979C42.3528 41.6119 42.1816 42.353 42.396 43.1532C42.6105 43.9534 43.1293 44.5097 43.5549 44.3956L52.1559 42.091C52.5815 41.977 52.7527 41.2358 52.5383 40.4356C52.3238 39.6354 51.805 39.0792 51.3794 39.1932Z" fill="#DAF3EF"/>
<rect x="16.8843" y="40.6716" width="18" height="13.5" rx="1" transform="rotate(-15 16.8843 40.6716)" fill="#98E8DB"/>
</g>
</g>
<defs>
<filter id="filter0_d_341_9788" x="0" y="0" width="78.46" height="92.8972" filterUnits="userSpaceOnUse" color-interpolation-filters="sRGB">
<feFlood flood-opacity="0" result="BackgroundImageFix"/>
<feColorMatrix in="SourceAlpha" type="matrix" values="0 0 0 0 0 0 0 0 0 0 0 0 0 0 0 0 0 0 127 0" result="hardAlpha"/>
<feOffset dy="4"/>
<feGaussianBlur stdDeviation="2.5"/>
<feColorMatrix type="matrix" values="0 0 0 0 0.0458333 0 0 0 0 0.0971667 0 0 0 0 0.366667 0 0 0 0.18 0"/>
<feBlend mode="normal" in2="BackgroundImageFix" result="effect1_dropShadow_341_9788"/>
<feBlend mode="normal" in="SourceGraphic" in2="effect1_dropShadow_341_9788" result="shape"/>
</filter>
<clipPath id="clip0_341_9788">
<rect x="5" y="14.3506" width="51.5828" height="72" rx="4" transform="rotate(-15 5 14.3506)" fill="white"/>
</clipPath>
</defs>
</svg>
