<svg width="14" height="15" viewBox="0 0 14 15" fill="none" xmlns="http://www.w3.org/2000/svg">
<path d="M2.625 4.34766H3.9375C4.05599 4.34766 4.15625 4.39323 4.23828 4.48438C4.32943 4.57552 4.375 4.67578 4.375 4.78516C4.375 4.91276 4.32943 5.01758 4.23828 5.09961C4.15625 5.18164 4.05599 5.22266 3.9375 5.22266H2.625V6.53516C2.625 6.66276 2.57943 6.76758 2.48828 6.84961C2.40625 6.93164 2.30599 6.97266 2.1875 6.97266C2.06901 6.97266 1.96419 6.93164 1.87305 6.84961C1.79102 6.76758 1.75 6.66276 1.75 6.53516V5.22266H0.4375C0.31901 5.22266 0.214193 5.18164 0.123047 5.09961C0.0410156 5.01758 0 4.91276 0 4.78516C0 4.67578 0.0410156 4.57552 0.123047 4.48438C0.214193 4.39323 0.31901 4.34766 0.4375 4.34766H1.75V3.03516C1.75 2.92578 1.79102 2.82552 1.87305 2.73438C1.96419 2.64323 2.06901 2.59766 2.1875 2.59766C2.30599 2.59766 2.40625 2.64323 2.48828 2.73438C2.57943 2.82552 2.625 2.92578 2.625 3.03516V4.34766ZM12.5781 1.20312L13.6582 2.2832C13.877 2.50195 13.9863 2.76172 13.9863 3.0625C13.9863 3.36328 13.877 3.61849 13.6582 3.82812L2.95312 14.5469C2.74349 14.7565 2.48828 14.8613 2.1875 14.8613C1.88672 14.8613 1.62695 14.7565 1.4082 14.5469L0.328125 13.4668C0.11849 13.248 0.0136719 12.9883 0.0136719 12.6875C0.0136719 12.3867 0.11849 12.1315 0.328125 11.9219L11.0469 1.20312C11.2565 0.99349 11.5117 0.888672 11.8125 0.888672C12.1133 0.888672 12.373 0.99349 12.5918 1.20312H12.5781ZM0.957031 12.8516L2.02344 13.918C2.06901 13.9635 2.1237 13.9863 2.1875 13.9863C2.2513 13.9863 2.30599 13.9635 2.35156 13.918L9.13281 7.13672L7.73828 5.74219L0.957031 12.5234C0.911458 12.569 0.888672 12.6237 0.888672 12.6875C0.888672 12.7513 0.911458 12.806 0.957031 12.8516ZM6.01562 1.85938H6.5625C6.65365 1.85938 6.73112 1.89128 6.79492 1.95508C6.85872 2.00977 6.89062 2.07812 6.89062 2.16016C6.89062 2.26953 6.85872 2.35612 6.79492 2.41992C6.73112 2.48372 6.65365 2.51562 6.5625 2.51562H6.01562V3.03516C6.01562 3.14453 5.98372 3.23112 5.91992 3.29492C5.85612 3.35872 5.77865 3.39062 5.6875 3.39062C5.59635 3.39062 5.51888 3.35872 5.45508 3.29492C5.39128 3.23112 5.35938 3.14453 5.35938 3.03516V2.51562H4.8125C4.72135 2.51562 4.64388 2.48372 4.58008 2.41992C4.51628 2.35612 4.48438 2.26953 4.48438 2.16016C4.48438 2.07812 4.51628 2.00977 4.58008 1.95508C4.64388 1.89128 4.72135 1.85938 4.8125 1.85938H5.35938V1.28516C5.35938 1.20312 5.39128 1.13477 5.45508 1.08008C5.51888 1.01628 5.59635 0.984375 5.6875 0.984375C5.77865 0.984375 5.85612 1.01628 5.91992 1.08008C5.98372 1.13477 6.01562 1.20312 6.01562 1.28516V1.85938ZM11.6484 1.83203L8.36719 5.11328L9.76172 6.50781L13.043 3.22656C13.0885 3.18099 13.1113 3.1263 13.1113 3.0625C13.1113 2.9987 13.0885 2.94857 13.043 2.91211L11.9766 1.83203C11.931 1.79557 11.8763 1.77734 11.8125 1.77734C11.7487 1.77734 11.694 1.79557 11.6484 1.83203ZM11.8125 9.59766C11.931 9.59766 12.0312 9.64779 12.1133 9.74805C12.2044 9.83919 12.25 9.94401 12.25 10.0625V11.375H13.5625C13.681 11.375 13.7812 11.4206 13.8633 11.5117C13.9544 11.5938 14 11.694 14 11.8125C14 11.931 13.9544 12.0358 13.8633 12.127C13.7812 12.209 13.681 12.25 13.5625 12.25H12.25V13.5625C12.25 13.681 12.2044 13.7858 12.1133 13.877C12.0312 13.959 11.931 14 11.8125 14C11.694 14 11.5892 13.959 11.498 13.877C11.416 13.7858 11.375 13.681 11.375 13.5625V12.25H10.0625C9.94401 12.25 9.83919 12.209 9.74805 12.127C9.66602 12.0358 9.625 11.931 9.625 11.8125C9.625 11.694 9.66602 11.5938 9.74805 11.5117C9.83919 11.4206 9.94401 11.375 10.0625 11.375H11.375V10.0625C11.375 9.94401 11.416 9.83919 11.498 9.74805C11.5892 9.64779 11.694 9.59766 11.8125 9.59766Z" fill="#2C95FF"/>
</svg>
