<svg width="60" height="60" viewBox="0 0 60 60" fill="none" xmlns="http://www.w3.org/2000/svg">
<circle cx="30" cy="30" r="30" fill="#F0EDF8"/>
<path d="M44.4751 26.8297C44.405 26.6195 44.3116 26.4211 44.1949 26.246C43.8797 25.7673 43.401 25.3938 42.864 25.1603C42.0702 24.8217 41.1246 24.7867 40.2724 25.1603C39.9689 25.2887 39.6887 25.4755 39.4202 25.709L38.8365 26.246L38.1944 26.8297L37.0503 27.8687L36.6067 28.2656L36.3499 28.4991L36.3382 28.5107L37.4122 29.4914L38.1594 30.1684L39.1867 31.114L39.4202 31.3242C39.5953 31.4876 39.7471 31.6511 39.8871 31.8378C40.0973 32.118 40.2724 32.4099 40.3891 32.7251C40.4125 32.7718 40.4358 32.8185 40.4475 32.8768C40.4708 32.8301 40.4942 32.7718 40.5292 32.7251C40.5642 32.6667 40.5993 32.62 40.6343 32.5616C40.751 32.3865 40.8911 32.2231 41.0662 32.0713L41.3231 31.8378L42.1169 31.114L43.1442 30.1684L43.6812 29.6781C43.7513 29.6198 43.8096 29.5614 43.868 29.4914C44.1365 29.1995 44.335 28.861 44.4517 28.4991C44.5218 28.3006 44.5568 28.0788 44.5685 27.8687C44.5685 27.822 44.5801 27.7636 44.5801 27.7169V27.6702C44.6151 27.3667 44.5685 27.0865 44.4751 26.8297Z" fill="#451DA0"/>
<path d="M44.3466 39.2041C44.2182 38.9473 44.0548 38.7138 43.8446 38.5037C43.8096 38.4686 43.7629 38.4219 43.7279 38.3869L42.8523 37.5814L42.0352 36.8343L41.1012 35.9821C41.0896 35.9704 41.0896 35.9704 41.0779 35.9587C40.9144 35.8069 40.7744 35.6435 40.6576 35.4684C40.5876 35.3633 40.5292 35.2699 40.4825 35.1649V35.1532V35.1649C40.3891 35.4451 40.249 35.7136 40.0856 35.9587C39.9105 36.2155 39.712 36.4607 39.4669 36.6825L39.3034 36.8343L38.4862 37.5814L37.4706 38.5037L36.7001 39.2041L36.3732 39.5076L36.6417 39.7528L37.1204 40.1847L37.8325 40.8385L38.9532 41.8541L39.4552 42.3094C39.5136 42.3561 39.5719 42.4028 39.6303 42.4495C40.8444 43.4068 42.5138 43.2784 43.5878 42.4495C43.8096 42.2744 44.0081 42.0759 44.1715 41.8541C44.3816 41.5623 44.5334 41.212 44.6035 40.8385C44.6268 40.6867 44.6501 40.5233 44.6501 40.3598C44.6501 40.3015 44.6501 40.2431 44.6385 40.1964C44.5801 39.8345 44.4867 39.5076 44.3466 39.2041Z" fill="#451DA0"/>
<path d="M16.2471 37.6634L17.8698 36.1808C19.1773 34.99 19.1773 33.0521 17.8698 31.8614L16.2471 30.3904C15.7685 29.9585 15.5 29.3631 15.5 28.7561V28.7094C15.5 26.6547 18.2317 25.6157 19.8311 27.075L25.0727 31.8497C26.3802 33.0405 26.3802 34.9784 25.0727 36.1691L19.8311 40.9438C18.2317 42.3914 15.5 41.3641 15.5 39.3094C15.5 38.6907 15.7685 38.107 16.2471 37.6634Z" fill="url(#paint0_linear_419_946)"/>
<path d="M23.0881 39.7763L26.7071 36.4725C28.178 35.13 28.178 32.9353 26.7071 31.6044L23.0881 28.3007C22.341 27.6119 21.9207 26.6896 21.9207 25.7207V25.6623C21.9207 22.4169 26.2284 20.7942 28.75 23.0823L38.0659 31.5694C39.5369 32.9119 39.5369 35.1066 38.0659 36.4375L28.75 44.9245C26.2284 47.2243 21.9207 45.5899 21.9207 42.3446C21.909 41.3873 22.3293 40.4534 23.0881 39.7763Z" fill="url(#paint1_linear_419_946)"/>
<path d="M34.6806 21.9851C36.8856 21.9851 38.6731 20.1975 38.6731 17.9925C38.6731 15.7875 36.8856 14 34.6806 14C32.4755 14 30.688 15.7875 30.688 17.9925C30.688 20.1975 32.4755 21.9851 34.6806 21.9851Z" fill="#451DA0"/>
<defs>
<linearGradient id="paint0_linear_419_946" x1="16.5163" y1="34.0083" x2="42.5249" y2="34.0083" gradientUnits="userSpaceOnUse">
<stop stop-color="#53DAEE"/>
<stop offset="1" stop-color="#2C95FF"/>
</linearGradient>
<linearGradient id="paint1_linear_419_946" x1="16.971" y1="34.0082" x2="43.9552" y2="34.0082" gradientUnits="userSpaceOnUse">
<stop stop-color="#53DAEE"/>
<stop offset="1" stop-color="#2C95FF"/>
</linearGradient>
</defs>
</svg>
