<svg width="12" height="15" viewBox="0 0 12 15" fill="none" xmlns="http://www.w3.org/2000/svg">
<path d="M11.25 2.625V13.125C11.25 13.6081 11.0768 14.0182 10.7305 14.3555C10.3932 14.7018 9.98307 14.875 9.5 14.875H2.5C2.01693 14.875 1.60221 14.7018 1.25586 14.3555C0.91862 14.0182 0.75 13.6081 0.75 13.125V2.625C0.75 2.14193 0.91862 1.73177 1.25586 1.39453C1.60221 1.04818 2.01693 0.875 2.5 0.875H9.5C9.98307 0.875 10.3932 1.04818 10.7305 1.39453C11.0768 1.73177 11.25 2.14193 11.25 2.625ZM10.375 2.625C10.375 2.38802 10.2884 2.18294 10.1152 2.00977C9.94206 1.83659 9.73698 1.75 9.5 1.75H2.5C2.26302 1.75 2.05794 1.83659 1.88477 2.00977C1.71159 2.18294 1.625 2.38802 1.625 2.625V4.375H10.375V2.625ZM10.375 5.25H1.625V13.125C1.625 13.362 1.71159 13.5671 1.88477 13.7402C2.05794 13.9134 2.26302 14 2.5 14H9.5C9.73698 14 9.94206 13.9134 10.1152 13.7402C10.2884 13.5671 10.375 13.362 10.375 13.125V5.25ZM2.5 12.25C2.5 12.1315 2.54102 12.0312 2.62305 11.9492C2.71419 11.8581 2.81901 11.8125 2.9375 11.8125H6.4375C6.55599 11.8125 6.65625 11.8581 6.73828 11.9492C6.82943 12.0312 6.875 12.1315 6.875 12.25C6.875 12.3685 6.82943 12.4733 6.73828 12.5645C6.65625 12.6465 6.55599 12.6875 6.4375 12.6875H2.9375C2.81901 12.6875 2.71419 12.6465 2.62305 12.5645C2.54102 12.4733 2.5 12.3685 2.5 12.25ZM2.71875 7C2.71875 6.81771 2.78255 6.66276 2.91016 6.53516C3.03776 6.40755 3.19271 6.34375 3.375 6.34375C3.55729 6.34375 3.71224 6.40755 3.83984 6.53516C3.96745 6.66276 4.03125 6.81771 4.03125 7C4.03125 7.18229 3.96745 7.33724 3.83984 7.46484C3.71224 7.59245 3.55729 7.65625 3.375 7.65625C3.19271 7.65625 3.03776 7.59245 2.91016 7.46484C2.78255 7.33724 2.71875 7.18229 2.71875 7ZM2.71875 9.625C2.71875 9.44271 2.78255 9.28776 2.91016 9.16016C3.03776 9.03255 3.19271 8.96875 3.375 8.96875C3.55729 8.96875 3.71224 9.03255 3.83984 9.16016C3.96745 9.28776 4.03125 9.44271 4.03125 9.625C4.03125 9.80729 3.96745 9.96224 3.83984 10.0898C3.71224 10.2174 3.55729 10.2812 3.375 10.2812C3.19271 10.2812 3.03776 10.2174 2.91016 10.0898C2.78255 9.96224 2.71875 9.80729 2.71875 9.625ZM5.34375 7C5.34375 6.81771 5.40755 6.66276 5.53516 6.53516C5.66276 6.40755 5.81771 6.34375 6 6.34375C6.18229 6.34375 6.33724 6.40755 6.46484 6.53516C6.59245 6.66276 6.65625 6.81771 6.65625 7C6.65625 7.18229 6.59245 7.33724 6.46484 7.46484C6.33724 7.59245 6.18229 7.65625 6 7.65625C5.81771 7.65625 5.66276 7.59245 5.53516 7.46484C5.40755 7.33724 5.34375 7.18229 5.34375 7ZM5.34375 9.625C5.34375 9.44271 5.40755 9.28776 5.53516 9.16016C5.66276 9.03255 5.81771 8.96875 6 8.96875C6.18229 8.96875 6.33724 9.03255 6.46484 9.16016C6.59245 9.28776 6.65625 9.44271 6.65625 9.625C6.65625 9.80729 6.59245 9.96224 6.46484 10.0898C6.33724 10.2174 6.18229 10.2812 6 10.2812C5.81771 10.2812 5.66276 10.2174 5.53516 10.0898C5.40755 9.96224 5.34375 9.80729 5.34375 9.625ZM7.96875 7C7.96875 6.81771 8.03255 6.66276 8.16016 6.53516C8.28776 6.40755 8.44271 6.34375 8.625 6.34375C8.80729 6.34375 8.96224 6.40755 9.08984 6.53516C9.21745 6.66276 9.28125 6.81771 9.28125 7C9.28125 7.18229 9.21745 7.33724 9.08984 7.46484C8.96224 7.59245 8.80729 7.65625 8.625 7.65625C8.44271 7.65625 8.28776 7.59245 8.16016 7.46484C8.03255 7.33724 7.96875 7.18229 7.96875 7ZM7.96875 9.625C7.96875 9.44271 8.03255 9.28776 8.16016 9.16016C8.28776 9.03255 8.44271 8.96875 8.625 8.96875C8.80729 8.96875 8.96224 9.03255 9.08984 9.16016C9.21745 9.28776 9.28125 9.44271 9.28125 9.625C9.28125 9.80729 9.21745 9.96224 9.08984 10.0898C8.96224 10.2174 8.80729 10.2812 8.625 10.2812C8.44271 10.2812 8.28776 10.2174 8.16016 10.0898C8.03255 9.96224 7.96875 9.80729 7.96875 9.625ZM7.96875 12.25C7.96875 12.0677 8.03255 11.9128 8.16016 11.7852C8.28776 11.6576 8.44271 11.5938 8.625 11.5938C8.80729 11.5938 8.96224 11.6576 9.08984 11.7852C9.21745 11.9128 9.28125 12.0677 9.28125 12.25C9.28125 12.4323 9.21745 12.5872 9.08984 12.7148C8.96224 12.8424 8.80729 12.9062 8.625 12.9062C8.44271 12.9062 8.28776 12.8424 8.16016 12.7148C8.03255 12.5872 7.96875 12.4323 7.96875 12.25Z" fill="#2C95FF"/>
</svg>
