<svg width="16" height="16" viewBox="0 0 16 16" fill="none" xmlns="http://www.w3.org/2000/svg">
<path d="M12.355 5.14497C12.2988 5.08875 12.2301 5.04672 12.1544 5.02237C12.0788 4.99802 11.9984 4.99206 11.92 5.00497C11.8422 5.01798 11.7685 5.04923 11.7051 5.09616C11.6416 5.14308 11.5902 5.20436 11.555 5.27497C11.4021 5.53959 11.2155 5.78328 11 5.99997C10.9492 4.68548 10.4679 3.4241 9.63 2.40997C9.16124 1.92866 8.59454 1.55367 7.96826 1.31041C7.34198 1.06714 6.67075 0.961276 6 0.999974C5.90955 1.00022 5.82086 1.02499 5.74337 1.07166C5.66589 1.11832 5.60251 1.18513 5.56 1.26497C5.51985 1.34316 5.50103 1.43055 5.50542 1.51833C5.5098 1.60611 5.53726 1.69118 5.585 1.76497C5.655 1.86997 7.175 4.20997 5.44 6.31497C5 5.96997 4.5 5.42497 4.5 4.99997C4.49934 4.88801 4.46111 4.77952 4.39146 4.69186C4.3218 4.60421 4.22474 4.54247 4.11582 4.51653C4.0069 4.4906 3.89243 4.50198 3.79075 4.54883C3.68906 4.59569 3.60605 4.67533 3.555 4.77497C2.87203 6.25727 2.5124 7.86796 2.5 9.49997C2.5 13.81 5.705 14.93 5.84 15C5.9369 15.0329 6.04157 15.0353 6.13988 15.0068C6.23819 14.9784 6.32539 14.9204 6.38972 14.8408C6.45406 14.7613 6.49241 14.6638 6.49961 14.5617C6.50682 14.4597 6.48252 14.3578 6.43 14.27C5.95567 13.4183 5.76809 12.4365 5.895 11.47C6.203 12.0673 6.66141 12.5739 7.225 12.94C7.33103 13.0103 7.45987 13.0375 7.58527 13.0161C7.71068 12.9948 7.82323 12.9264 7.9 12.825C8.59142 11.8133 8.91928 10.5971 8.83 9.37497C9.355 10.18 9.755 11.685 9.02 14.375C9.00101 14.4485 8.99902 14.5254 9.0142 14.5999C9.02937 14.6743 9.0613 14.7443 9.10757 14.8045C9.15384 14.8648 9.21323 14.9137 9.28122 14.9476C9.34922 14.9814 9.42404 14.9993 9.5 15C9.54471 15.0073 9.59029 15.0073 9.635 15C10.782 14.6159 11.776 13.8749 12.4715 12.8852C13.1669 11.8955 13.5273 10.7093 13.5 9.49997C13.5 6.38497 12.47 5.26497 12.355 5.14497Z" fill="#DC2626"/>
</svg>
