<svg width="40" height="40" viewBox="0 0 36 36" fill="none" xmlns="http://www.w3.org/2000/svg" class="mr-2 lg:mr-4 w-[28px] lg:w-9"><g clip-path="url(#sv-ic-24-hours_svg__clip0)"><circle cx="18" cy="18" r="16" fill="#D5EAFF"></circle><path d="M36 18v1.055h-2.11V18c0-4.245-1.652-8.235-4.653-11.237A15.789 15.789 0 0018 2.11 15.789 15.789 0 006.763 6.763 15.789 15.789 0 002.11 18c0 4.245 1.653 8.235 4.654 11.237A15.788 15.788 0 0018 33.89h1.055V36H18a17.883 17.883 0 01-12.728-5.272C1.872 27.328 0 22.808 0 18S1.872 8.672 5.272 5.272C8.672 1.872 13.192 0 18 0s9.328 1.872 12.728 5.272C34.128 8.672 36 13.192 36 18z" fill="#5C27D6"></path><path d="M36 18v1.055h-2.11V18c0-4.245-1.652-8.235-4.653-11.237A15.789 15.789 0 0018 2.11V0c4.808 0 9.328 1.872 12.728 5.272C34.128 8.672 36 13.192 36 18z" fill="#5C27D6"></path><path d="M16.945 8.016h2.11v8.93h-2.11v-8.93z" fill="#2C95FF"></path><path d="M18 8.016h1.055v8.93H18v-8.93z" fill="#2C95FF"></path><path d="M11.542 22.962l5.119-5.118 1.491 1.49-5.118 5.12-1.492-1.492z" fill="#2C95FF"></path><path d="M18 20.505a2.505 2.505 0 100-5.01 2.505 2.505 0 000 5.01z" fill="#5C27D6"></path><path d="M20.505 18A2.508 2.508 0 0118 20.505v-5.01A2.508 2.508 0 0120.505 18z" fill="#5C27D6"></path><path d="M34.685 33.079l-2.11-.005.008-2.975h-5.792l5.117-8.917h2.808l-.018 6.808H36v2.11h-1.307l-.008 2.979zm-4.252-5.089h2.156l.01-3.774-2.166 3.774z" fill="#2C95FF"></path><path d="M27.53 33.056l-7.008-.022.007-1.792.29-.304c.007-.008 1.016-1.088 3.324-4.385.44-.628.723-1.188.843-1.665l.03-.237a1.396 1.396 0 00-2.762-.213l-.203 1.035-2.07-.407.203-1.035a3.51 3.51 0 013.438-2.826 3.508 3.508 0 013.505 3.504v.067l-.063.49-.012.052c-.174.751-.572 1.574-1.181 2.445a80.19 80.19 0 01-2.32 3.171l3.985.012-.007 2.11z" fill="#2C95FF"></path></g><defs><clipPath id="sv-ic-24-hours_svg__clip0"><path fill="#fff" d="M0 0h36v36H0z"></path></clipPath></defs></svg>