<svg width="36" height="36" viewBox="0 0 36 36" fill="none" xmlns="http://www.w3.org/2000/svg" class="mr-2 lg:mr-4 w-[28px] lg:w-9"><g clip-path="url(#lightbulb11_svg__a)"><path d="M21.898 32.943v.912A2.147 2.147 0 0 1 19.752 36h-3.29a2.147 2.147 0 0 1-2.145-2.146v-.912c.284.126.598.196.93.196h5.721c.331 0 .646-.07.93-.196Z" fill="#C3C2CB"></path><path d="M18 4.69a.536.536 0 0 1-.537-.537V.536a.536.536 0 1 1 1.073 0v3.617c0 .296-.24.536-.536.536ZM8.372 8.679a.535.535 0 0 1-.38-.157L5.436 5.964a.536.536 0 0 1 .759-.758l2.557 2.557a.536.536 0 0 1-.38.916ZM4.383 18.306H.766a.536.536 0 1 1 0-1.073h3.616a.536.536 0 1 1 0 1.073ZM5.815 30.493a.535.535 0 0 1-.38-.916l2.558-2.557a.537.537 0 0 1 .758.759l-2.557 2.557a.535.535 0 0 1-.38.157ZM30.186 30.493a.535.535 0 0 1-.379-.157l-2.557-2.557a.536.536 0 1 1 .758-.759l2.558 2.557a.537.537 0 0 1-.38.916ZM35.233 18.306h-3.616a.536.536 0 1 1 0-1.073h3.616a.536.536 0 1 1 0 1.073ZM27.63 8.679a.535.535 0 0 1-.38-.916l2.557-2.557a.537.537 0 0 1 .759.758l-2.558 2.558a.535.535 0 0 1-.379.157Z" fill="#2C95FF"></path><path d="M18.107 32.423s-3.506.646-3.79.519v.912A2.147 2.147 0 0 0 16.463 36h.93a2.147 2.147 0 0 1-2.023-1.428.215.215 0 0 1 .201-.289h5.397c.326 0 .637-.068.917-.19.009-.079.013-.159.013-.24v-.911c-.284.127-3.79-.519-3.79-.519Z" fill="#878596"></path><path d="M23.257 30.85a2.29 2.29 0 0 1-2.289 2.29h-5.722a2.29 2.29 0 0 1-2.289-2.289s-.033-3.343-.04-3.43v-.003l5.19-.716 5.13.716.02 3.433Z" fill="#C3C2CB"></path><path d="M16.462 33.14h-1.216a2.29 2.29 0 0 1-2.289-2.289s-.033-3.343-.04-3.43v-.004h1.216v.003c.007.087.04 3.43.04 3.43a2.29 2.29 0 0 0 2.29 2.29ZM23.256 30.814h-1.824a.537.537 0 0 1 0-1.073h1.818l.003.536.003.537Z" fill="#878596"></path><path d="M19.466 30.277c0 .296-.24.537-.537.537h-5.972l-.013-1.073h5.985c.297 0 .537.24.537.536Z" fill="#878596"></path><path opacity="0.7" d="M18.008 6.473c-5.523-.086-10.169 4.729-10.07 10.212a10.26 10.26 0 0 0 2.904 7.178c1.057 1.088 1.973 2.093 2.075 3.554l10.32.017c.058-1.504.912-2.52 1.977-3.631a10.258 10.258 0 0 0 2.846-7.118c0-5.637-4.5-10.207-10.052-10.212Z" fill="#D5EAFF"></path><path d="M23.238 27.433v.002l-10.32-.017c-.102-1.46-1.017-2.466-2.075-3.554a10.26 10.26 0 0 1-2.903-7.178c-.1-5.483 4.546-10.298 10.07-10.212.178 0 .355.005.531.014-5.218.302-9.48 4.943-9.385 10.198a10.26 10.26 0 0 0 2.903 7.178c1.058 1.088 1.973 2.093 2.075 3.554l9.104.015Z" fill="#2C95FF"></path><path d="M18.252 21.797a1.18 1.18 0 0 1-1.808.068l-3.361-3.72a1.18 1.18 0 1 1 1.75-1.582l2.418 2.675 3.857-4.968a1.18 1.18 0 1 1 1.864 1.448l-4.72 6.08Z" fill="#5C27D6"></path></g><defs><clipPath id="lightbulb11_svg__a"><path fill="#fff" d="M0 0h36v36H0z"></path></clipPath></defs></svg>