<svg width="30px" height="30px" viewBox="0 0 42 42" fill="none" xmlns="http://www.w3.org/2000/svg" class="my-auto mr-4 h-full text-se-accent-100"><g clip-path="url(#headphone_svg__clip0)" fill="currentColor"><path d="M2.425 15.63a1.75 1.75 0 002.267-.993C7.335 7.872 13.736 3.5 21 3.5c7.263 0 13.664 4.372 16.307 11.137a1.75 1.75 0 002.267.992 1.75 1.75 0 00.994-2.267C37.394 5.246 29.715 0 21 0 12.285 0 4.605 5.246 1.432 13.363a1.75 1.75 0 00.993 2.267z"></path><path d="M34.903 19.41C34.111 12.436 28.182 6.998 21 6.998S7.89 12.436 7.097 19.41C3.061 20.185 0 23.74 0 27.998c0 4.825 3.925 8.75 8.75 8.75a1.75 1.75 0 001.75-1.75v-14c0-5.79 4.71-10.5 10.5-10.5s10.5 4.71 10.5 10.5v15.75c0 .965-.785 1.75-1.75 1.75h-3.5c-.965 0-1.75-.785-1.75-1.75a1.75 1.75 0 00-3.5 0 5.255 5.255 0 005.25 5.25h3.5a5.255 5.255 0 005.25-5.25v-.176c3.99-.813 7-4.348 7-8.574 0-4.26-3.06-7.813-7.097-8.588zM3.5 27.998A5.253 5.253 0 017 23.055v9.887a5.253 5.253 0 01-3.5-4.944zM35 32.942v-9.887a5.253 5.253 0 013.5 4.943 5.253 5.253 0 01-3.5 4.944z"></path></g><defs><clipPath id="headphone_svg__clip0"><path fill="#fff" d="M0 0h42v42H0z"></path></clipPath></defs></svg>