<svg width="41" height="40" viewBox="0 0 41 40" fill="none" xmlns="http://www.w3.org/2000/svg">
<g clip-path="url(#clip0_3_9847)">
<path d="M34.5625 6.37662C28.076 6.37662 21.3538 0.364043 21.2873 0.303809C20.8405 -0.10127 20.1595 -0.10127 19.7127 0.303809C19.6458 0.364512 12.9412 6.37662 6.4375 6.37662C5.79031 6.37662 5.26562 6.90131 5.26562 7.5485V21.5827C5.26562 32.9518 13.7216 37.4947 20.082 39.923C20.2166 39.9744 20.3583 40 20.5 40C20.6417 40 20.7834 39.9743 20.918 39.923C29.8363 36.5183 35.7344 31.2074 35.7344 21.5827V7.5485C35.7344 6.90131 35.2097 6.37662 34.5625 6.37662Z" fill="url(#paint0_linear_3_9847)"/>
<path d="M20.5 11.7969C15.9768 11.7969 12.2969 15.4768 12.2969 20C12.2969 24.5232 15.9768 28.2031 20.5 28.2031C25.0232 28.2031 28.7031 24.5232 28.7031 20C28.7031 15.4768 25.0232 11.7969 20.5 11.7969ZM23.6723 19.6567L20.1567 23.1723C19.928 23.4012 19.628 23.5156 19.3281 23.5156C19.0282 23.5156 18.7283 23.4012 18.4995 23.1723L17.3277 22.0005C16.87 21.5428 16.87 20.8009 17.3277 20.3432C17.7852 19.8855 18.5273 19.8855 18.9849 20.3432L19.3282 20.6864L22.0152 17.9995C22.4728 17.5418 23.2148 17.5418 23.6725 17.9995C24.1301 18.4571 24.1301 19.1991 23.6723 19.6567Z" fill="url(#paint1_linear_3_9847)"/>
</g>
<defs>
<linearGradient id="paint0_linear_3_9847" x1="20.5" y1="40" x2="20.5" y2="-1.90735e-05" gradientUnits="userSpaceOnUse">
<stop stop-color="#04C8D5"/>
<stop offset="1" stop-color="#82F1D7"/>
</linearGradient>
<linearGradient id="paint1_linear_3_9847" x1="20.5" y1="28.2031" x2="20.5" y2="11.7969" gradientUnits="userSpaceOnUse">
<stop stop-color="#C3FFE8"/>
<stop offset="0.9973" stop-color="#F0FFF4"/>
</linearGradient>
<clipPath id="clip0_3_9847">
<rect width="40" height="40" fill="white" transform="translate(0.5)"/>
</clipPath>
</defs>
</svg>
